<svg aria-hidden="true" style="position:absolute;width:0;height:0;overflow:hidden" xmlns="http://www.w3.org/2000/svg">
  <defs>
    <symbol id="icon-antenna" viewBox="0 0 32 32">
      <path fill="#212121" style="fill:var(--color1, #212121)" d="m30.773 22.098-8.443-8.505.937-4.616c.225.09.485.144.758.146h.033a2.16 2.16 0 1 0-2.029-1.42l-.005-.015-4.96.606L8.973.161a.53.53 0 0 0-.376-.16.536.536 0 0 0-.373.155L6.712 1.66a.535.535 0 0 0 0 .754l.814.825C6.383 5.301 5.71 7.761 5.71 10.378c0 4.106 1.656 7.824 4.336 10.525l-.001-.001a.49.49 0 0 0 .146.097 2.986 2.986 0 0 0-.052.546v6.188h-6.4a2.669 2.669 0 0 0-2.667 2.666v1.067c0 .295.239.534.534.534H26.14a.534.534 0 0 0 .533-.534v-1.067a2.67 2.67 0 0 0-2.666-2.666h-6.4v-2.742a14.784 14.784 0 0 0 10.166-1.502l-.077.039.818.823a.534.534 0 0 0 .376.16.536.536 0 0 0 .373-.155l1.512-1.504a.535.535 0 0 0 0-.754zM23.28 6.233a1.067 1.067 0 1 1 .752 1.822h-.004a1.066 1.066 0 0 1-.747-1.822h-.002zm-1.256 3.504-.598 2.946-1.175-1.183 1.774-1.763zm-.605-.902-1.92 1.909-1.486-1.493 3.406-.416zM24.004 28.8a1.6 1.6 0 0 1 1.6 1.6v.534H2.138V30.4a1.6 1.6 0 0 1 1.6-1.6h20.267zm-7.466-2.134v1.067h-5.334v-1.067h5.334zM11.204 25.6v-4.053c0-1.294 1.196-2.346 2.667-2.346s2.667 1.053 2.667 2.346V25.6h-5.334zm6.4-1.696v-2.357c0-1.882-1.675-3.413-3.733-3.413h-.058c-1.353 0-2.54.707-3.213 1.771l-.009.016a13.817 13.817 0 0 1-3.812-9.55c0-2.314.567-4.496 1.569-6.414l-.036.077 18.602 18.709c-1.823.947-3.979 1.502-6.266 1.502-1.079 0-2.128-.124-3.136-.357l.093.018zm11.289-.684L7.836 2.039l.754-.752 7.935 7.98c.004 0 .006.007.01.01l13.114 13.191-.757.752z"/>
      <path fill="#2196f3" style="fill:var(--color2, #2196f3)" d="M13.876 20.267h-.007a1.6 1.6 0 0 0-.003 3.2h.007a1.6 1.6 0 0 0 .002-3.2zm.373 1.978a.534.534 0 1 1-.378-.912.533.533 0 0 1 .374.911h.005z"/>
    </symbol>
    <symbol id="icon-astronaut" viewBox="0 0 32 32">
      <path fill="#2196f3" style="fill:var(--color2, #2196f3)" d="M31.974 4.524a.535.535 0 0 0-.427-.362h-.003l-1.911-.278-.855-1.731c-.179-.365-.777-.365-.956 0l-.855 1.731-1.911.278a.534.534 0 0 0-.296.91l1.383 1.348-.326 1.903a.532.532 0 0 0 .774.562l1.709-.899 1.709.899a.534.534 0 0 0 .773-.565v.003l-.326-1.903 1.383-1.348a.535.535 0 0 0 .134-.55l.001.004zm-2.463 1.327a.53.53 0 0 0-.153.472l.191 1.114-1-.526a.525.525 0 0 0-.501.001l.003-.001-1 .526.191-1.114a.53.53 0 0 0-.152-.472l-.811-.79 1.119-.162a.532.532 0 0 0 .402-.292l.5-1.013.5 1.013a.532.532 0 0 0 .402.292l1.119.162-.809.79zm-3.377 14.671h-1.067v1.067h1.067v-1.067zm0 2.134h-1.067v1.066h1.067v-1.066zm1.066-1.067h-1.067v1.067H27.2v-1.067zm-2.133 0H24v1.067h1.067v-1.067zm-2.667 4.8h-1.067v1.067H22.4v-1.067zm0 2.134h-1.067v1.067H22.4v-1.067zm1.067-1.067H22.4v1.067h1.067v-1.067zm-2.133 0h-1.067v1.067h1.067v-1.067zM16 24.256h-1.066v1.067H16v-1.067zm0 2.133h-1.066v1.067H16v-1.067zm1.067-1.067H16v1.067h1.067v-1.067zm-2.133 0h-1.067v1.067h1.067v-1.067zm-9.067-19.2H4.801v1.066h1.066V6.122zm0 2.134H4.801v1.066h1.066V8.256zm1.066-1.067H5.866v1.067h1.066V7.189zm-2.133 0H3.733v1.067H4.8V7.189z"/>
      <path fill="#212121" style="fill:var(--color1, #212121)" d="M24.715 14.16a1.774 1.774 0 0 0-1.179-.703l-.009-.001a1.769 1.769 0 0 0-1.344.355l.004-.003-1.253.96-1.898 1.417-1.358-.541c2.421-1.086 4.113-3.508 4.113-6.32 0-3.823-3.122-6.934-6.961-6.934S7.869 5.5 7.869 9.324c0 1.386.415 2.674 1.12 3.759l-2.768-.024c-.009 0-.016.005-.023.005a.511.511 0 0 0-.159.033l.004-.001c-.013.005-.026.007-.038.013-.006.003-.013.003-.019.006l-3.233 1.596-.001.001-1.893.91a.5.5 0 0 0-.065.036l.001-.001a1.782 1.782 0 0 0-.594 2.306l-.005-.01c.22.424.592.742 1.043.885l.013.003a1.772 1.772 0 0 0 1.388-.133l-.009.005 1.388-.738 2.264-1.169 1.357-.008-5.442 5.415-.001.001-1.339 1.333a1.643 1.643 0 0 0-.491 1.173v.005a1.668 1.668 0 0 0 1.667 1.664h.002a1.67 1.67 0 0 0 1.18-.485l1.314-1.309 1.741-1.3.901.897L4.07 27.28a1.643 1.643 0 0 0-.491 1.173v.004a1.662 1.662 0 0 0 1.666 1.664h.003a1.67 1.67 0 0 0 1.18-.485l4.488-4.472c.007-.006.016-.009.022-.016l5.166-5.658 3.471.494a.474.474 0 0 0 .262-.032c.017-.006.032-.015.049-.023.019-.01.039-.015.058-.027l3.213-2.133c.012-.008.018-.021.029-.03.013-.01.029-.014.041-.026l1.271-1.191c.348-.326.564-.787.564-1.3 0-.4-.132-.769-.355-1.066l.003.005zM2.13 17.77a.706.706 0 0 1-.564.05l.005.001a.717.717 0 0 1-.215-1.258l.002-.001 1.314-.632.316.924.133.389-.992.527zm3.497-1.828-1.548.8-.255-.746-.184-.537 2.027-1.001-.04 1.484zm15.1-6.62c0 .918-.219 1.785-.599 2.56l-4.181-1.899a1.865 1.865 0 0 0-.782-1.384l-.006-.004 1.464-4.861c2.377.757 4.104 2.975 4.104 5.588zm-11.789 0c0-3.235 2.644-5.867 5.894-5.867.253 0 .5.022.745.053l-1.432 4.753c-.019 0-.037-.006-.057-.006h-.001a1.872 1.872 0 0 0-1.872 1.867 1.873 1.873 0 0 0 1.872 1.867h.001c.695 0 1.295-.383 1.618-.944l3.863 1.755a5.891 5.891 0 0 1-4.737 2.39c-3.25 0-5.894-2.632-5.894-5.867zm5.957.8c0 .441-.362.8-.806.8h-.001a.804.804 0 0 1-.804-.8c0-.441.361-.8.806-.8s.806.359.806.8zM2.464 25.146a.606.606 0 0 1-.855.001.591.591 0 0 1 0-.844l.962-.959.852.848-.959.954zm3.214 3.734a.606.606 0 0 1-.855.001.591.591 0 0 1 0-.844l.963-.959.852.848-.96.955zm3.482-3.469-.001.001-1.765 1.76-.852-.848 1.765-1.757a.527.527 0 0 0 .09-.136c.007-.014.02-.026.026-.04.016-.041.019-.085.026-.128.003-.025.014-.048.014-.073 0-.035-.013-.07-.02-.105-.006-.032-.006-.064-.019-.096a.536.536 0 0 0-.092-.138c-.01-.012-.014-.026-.025-.038h-.001l-.001-.002-1.607-1.6c-.017-.017-.039-.024-.058-.038a.491.491 0 0 0-.084-.056l-.003-.001a.527.527 0 0 0-.09-.031l-.003-.001a.502.502 0 0 0-.101-.02h-.025a.603.603 0 0 0-.075.005h.003c-.036.005-.069.009-.104.021s-.064.027-.094.045c-.02.011-.043.015-.061.029l-1.774 1.324-.901-.897 2.399-2.386 4.36 4.289-.928.919zm6.819-7.017c-.016-.002-.03.004-.046.003l-.027-.001a.562.562 0 0 0-.092.008h.003a.484.484 0 0 0-.187.07l.002-.001a.492.492 0 0 0-.083.061c-.013.011-.028.016-.04.029l-4.698 5.146-4.328-4.256 2.833-2.818a.535.535 0 0 0-.378-.911h-.002l-2.219.013.028-1.607 3.104.027a6.928 6.928 0 0 0 4.978 2.101h.003c.438 0 .864-.046 1.28-.122.04.032.08.064.129.085l2.41.96.152.758.178.886-3.003-.427zm4.041.178-.313-1.558 1.446-1.08.946 1.257-2.08 1.381zm3.753-2.831-.837.785-.931-1.236.831-.637a.735.735 0 0 1 .543-.143.718.718 0 0 1 .621.71.71.71 0 0 1-.226.521z"/>
      <path fill="#212121" style="fill:var(--color1, #212121)" d="m13.602 18.544-2.143-2.134a.53.53 0 0 0-.752 0l-2.143 2.133a.535.535 0 0 0 0 .756l2.142 2.134a.53.53 0 0 0 .752 0l2.143-2.134a.532.532 0 0 0 0-.756zm-2.519 1.759-1.387-1.381 1.386-1.381 1.387 1.381-1.387 1.381zm6.081-15.232-.258 1.036c.071.018 1.738.452 1.738 2.149h1.067c0-2.017-1.666-2.965-2.547-3.184zm2.547 4.251h-1.067v1.066h1.067V9.322z"/>
    </symbol>
    <symbol id="icon-client-1" viewBox="0 0 32 32">
      <path d="m13.206 11.661 1.322 1.251-2.454-.002v6.072h6.414V16.66l1.321 1.25v-6.251h-6.603zm5.224 4.854-3.748-3.549h3.748v3.549zm-1.164 1.58h-4.177v-4.084h.295v3.807h3.882v.277zm-3.191 1.697-.155.318-.155-.318h-.13l.225.424v.247h.117v-.247l.225-.424h-.129zm.194.671.054-.156h.26l.055.156h.121l-.254-.671H14.4l-.253.671h.121zm.184-.529.097.278h-.194l.097-.278zm.615.262a.15.15 0 0 0-.025.084v.001c0 .056.02.102.06.138s.093.053.159.053a.275.275 0 0 0 .171-.054l.038.044h.13l-.099-.117a.332.332 0 0 0 .058-.203h-.097a.265.265 0 0 1-.028.123l-.13-.153.046-.033a.252.252 0 0 0 .069-.069l.001-.001a.15.15 0 0 0 .021-.076v-.004a.14.14 0 0 0-.047-.104.167.167 0 0 0-.113-.043h-.007.001c-.054 0-.097.016-.129.046s-.048.072-.048.125c0 .022.005.044.015.067s.029.051.055.084a.421.421 0 0 0-.1.092zm.302.148a.178.178 0 0 1-.106.038h-.005a.111.111 0 0 1-.075-.029.101.101 0 0 1-.03-.072v-.004c0-.036.018-.068.055-.096l.014-.01.146.173zm-.12-.296c-.031-.039-.048-.071-.048-.097 0-.022.007-.041.02-.056a.064.064 0 0 1 .049-.022h.005a.07.07 0 0 1 .048.019c.013.012.02.027.02.044v.002a.082.082 0 0 1-.028.062l-.014.012-.051.035zm1.092.364a.24.24 0 0 0 .079-.168h-.116c-.006.048-.021.082-.044.102s-.058.031-.103.031a.13.13 0 0 1-.114-.057.293.293 0 0 1-.038-.166v-.059c.001-.072.015-.126.042-.163s.066-.056.117-.056c.043 0 .076.011.099.032s.037.056.042.104h.116c-.008-.073-.034-.13-.079-.17s-.105-.06-.178-.06a.253.253 0 0 0-.24.149l-.001.002a.393.393 0 0 0-.034.159v.008-.001.062c.001.062.012.116.035.163s.054.082.094.108a.258.258 0 0 0 .142.038c.076 0 .138-.02.184-.06zm.685-.094a.405.405 0 0 0 .034-.173v-.044a.403.403 0 0 0-.036-.167l.001.003a.26.26 0 0 0-.097-.113l-.001-.001c-.042-.027-.091-.04-.145-.04s-.103.013-.145.04a.267.267 0 0 0-.098.114.403.403 0 0 0-.035.165v.009-.001.038c.001.064.012.121.035.17a.263.263 0 0 0 .244.154c.055 0 .104-.013.146-.04s.075-.065.098-.114zm-.125-.379c.028.04.042.097.042.171v.035c0 .075-.014.133-.042.172s-.067.059-.119.059h-.005a.138.138 0 0 1-.114-.06l-.001-.001a.288.288 0 0 1-.043-.171v-.038a.291.291 0 0 1 .043-.167.14.14 0 0 1 .113-.06h.005c.052 0 .091.02.119.06z"/>
    </symbol>
    <symbol id="icon-client-2" viewBox="0 0 32 32">
      <path d="M15.491 11.46h-.026a3.418 3.418 0 0 0-.116-.004h-.088c-.075 0-.151.002-.227.005l-.009-.001-.009.001h.001a5.31 5.31 0 0 0-2.015.52l.032-.014-.082.039v4.177l.191-.065a6.75 6.75 0 0 1 .53-.157 6.3 6.3 0 0 1 1.523-.203h.004v.549a6.657 6.657 0 0 0-.201.005h-.016c-.429.024-.83.088-1.218.19l.042-.009a5.96 5.96 0 0 0-1.431.561l.031-.016v-5.357a5.512 5.512 0 0 1 1.43-.589l.039-.009a5.466 5.466 0 0 1 1.383-.178h.082c.097.003.19.007.279.014.233.016.463.053.689.11v.54a4.087 4.087 0 0 0-.654-.1l-.014-.001-.014-.001a1.755 1.755 0 0 0-.135-.008h-.002zm.951.552c.12.009.244.014.369.014a5.939 5.939 0 0 0 1.496-.196l-.041.009a6.02 6.02 0 0 0 1.43-.561l-.031.016v5.262a5.512 5.512 0 0 1-1.43.589l-.039.009a5.518 5.518 0 0 1-1.383.178h-.035c-.361 0-.711-.045-1.045-.13l.029.006v-5.296a5 5 0 0 0 .679.102zm2.677.041-.191.065a8.459 8.459 0 0 1-.53.159 6.31 6.31 0 0 1-1.585.203h-.001c-.125 0-.239-.003-.35-.01l-.152-.01v4.297l.131.011c.121.011.246.016.372.016a5.067 5.067 0 0 0 1.284-.17l-.035.008a5.228 5.228 0 0 0 1.007-.364l-.031.014.082-.039v-4.178zM12.779 18.87a.28.28 0 0 0-.202-.086h-.01.001-.004a.313.313 0 0 0-.12.024l.002-.001a.274.274 0 0 0-.156.157l-.001.002a.32.32 0 0 0-.022.118v.716a.34.34 0 0 0 .028.147.282.282 0 0 0 .072.096.25.25 0 0 0 .098.051.39.39 0 0 0 .107.015.304.304 0 0 0 .297-.302v-.08h-.187v.068a.178.178 0 0 1-.011.061l.001-.001a.128.128 0 0 1-.027.04.127.127 0 0 1-.078.027l-.011.001a.093.093 0 0 1-.076-.039.167.167 0 0 1-.025-.088v-.008.001-.668a.232.232 0 0 1 .023-.107.094.094 0 0 1 .091-.043h-.001.004a.1.1 0 0 1 .08.04.15.15 0 0 1 .031.092v.066h.185v-.076a.319.319 0 0 0-.024-.124l.001.002a.298.298 0 0 0-.063-.101zm1.111-.008a.33.33 0 0 0-.213-.079.33.33 0 0 0-.112.02.3.3 0 0 0-.171.157l-.001.002a.328.328 0 0 0-.027.139v.686a.285.285 0 0 0 .1.236c.029.027.062.047.099.06s.074.02.112.02a.322.322 0 0 0 .213-.081l-.001.001a.286.286 0 0 0 .07-.096.321.321 0 0 0 .027-.14V19.094a.331.331 0 0 0-.028-.134l.001.002a.3.3 0 0 0-.07-.1zm-.087.925.001.01a.129.129 0 0 1-.037.089.136.136 0 0 1-.176 0 .122.122 0 0 1-.037-.088l.001-.011v.001-.687l-.001-.011c0-.035.015-.066.037-.088a.136.136 0 0 1 .176 0 .122.122 0 0 1 .037.088l-.001.011V19.1v.687zm1.547.307v-1.3h-.18l-.236.688h-.003l-.238-.688h-.178v1.3h.185v-.79h.003l.182.559h.093l.183-.559h.003v.79h.185zm1.055-1.209a.268.268 0 0 0-.105-.071.398.398 0 0 0-.127-.02H15.889v1.3h.185v-.508h.095a.342.342 0 0 0 .167-.035.28.28 0 0 0 .101-.098l.001-.001c.021-.035.036-.073.042-.113s.01-.088.01-.136v-.012.001a.73.73 0 0 0-.018-.186.276.276 0 0 0-.068-.119zm-.096.396a.175.175 0 0 1-.017.069l.001-.001a.102.102 0 0 1-.047.045h-.001a.194.194 0 0 1-.078.017h-.094v-.442h.104c.027 0 .053.006.076.017l-.001-.001a.108.108 0 0 1 .043.047v.001c.01.023.016.048.016.073v.086c0 .03.002.061 0 .09h-.002zm.973-.487h-.152l-.286 1.3h.186l.054-.279h.252l.055.279h.185l-.293-1.3zm-.171.843.091-.471h.003l.091.471h-.185zm1.368-.06h-.003l-.279-.783h-.178v1.3h.185v-.782h.004l.283.782h.174v-1.3h-.185v.783zm1.131-.783-.149.517h-.004l-.149-.517h-.196l.254.751v.549h.186v-.549l.254-.75h-.196zm-7.348 1.666h.089v.251h.061v-.251h.088v-.052h-.239v.052zm.751-.051-.117.302h.065l.025-.069h.12l.025.069h.066l-.12-.302h-.065zm-.01.183.041-.112.041.112h-.082zm.751.008h.07v.039a.113.113 0 0 1-.072.026h-.004a.076.076 0 0 1-.06-.029.125.125 0 0 1-.022-.072v-.007.001c0-.067.029-.101.087-.101l.007-.001c.03 0 .055.021.062.048v.001l.06-.011c-.013-.059-.055-.088-.128-.088h-.004a.151.151 0 0 0-.101.039.148.148 0 0 0-.043.117v-.001.007c0 .041.015.078.039.106a.144.144 0 0 0 .105.044l.01-.001h-.001.005a.18.18 0 0 0 .123-.048v-.119h-.131v.051zm.758-.191h-.061v.302h.212v-.052h-.15v-.251zm.64 0h-.061v.302h.061v-.302zm.626.202-.124-.201h-.059v.302h.056v-.197l.121.197h.061v-.302h-.056v.202zm.566-.033h.15v-.052h-.15v-.066h.162v-.052h-.223v.302h.229v-.052h-.168v-.082zm1.373-.05h-.119v-.119h-.06v.302h.06v-.132h.119v.132h.061v-.302h-.061v.119zm.569.05h.151v-.052h-.151v-.066h.162v-.052h-.222v.302h.229v-.052h-.168v-.082zm.772 0c.053-.008.079-.036.079-.084l.001-.009a.071.071 0 0 0-.03-.058.174.174 0 0 0-.076-.018l-.012.001h-.127v.302h.061v-.126h.017c.012 0 .023.003.034.007h-.001a.066.066 0 0 1 .022.022l.066.096h.073l-.037-.059a.218.218 0 0 0-.066-.072l-.001-.001zm-.061-.042h-.044v-.075h.048l.013-.001c.017 0 .034.003.05.008l-.001-.001a.042.042 0 0 1 .013.03.053.053 0 0 1-.004.018c-.003.005-.006.01-.011.013a.164.164 0 0 1-.05.008l-.012-.001H19zm.643.042h.15v-.052h-.15v-.066h.162v-.052h-.223v.302h.229v-.052h-.168v-.082z"/>
    </symbol>
    <symbol id="icon-client-3" viewBox="0 0 32 32">
      <path d="m12.905 19.604.009.002.008.004.041.039a.336.336 0 0 1-.116.075.443.443 0 0 1-.153.027h-.011.001a.444.444 0 0 1-.154-.025.32.32 0 0 1-.191-.177l-.001-.002a.35.35 0 0 1-.027-.136V19.4c0-.096.042-.182.108-.242h.001a.367.367 0 0 1 .123-.071.477.477 0 0 1 .159-.025h.01c.049 0 .097.008.14.024l-.003-.001a.432.432 0 0 1 .111.063l-.035.042a.073.073 0 0 1-.009.008.024.024 0 0 1-.012.003h-.002a.037.037 0 0 1-.015-.004l-.018-.011-.026-.014a.318.318 0 0 0-.079-.025h-.002a.34.34 0 0 0-.057-.004H12.696a.324.324 0 0 0-.113.02l.002-.001a.252.252 0 0 0-.09.053.253.253 0 0 0-.079.191v.008c0 .039.008.076.022.111l-.001-.002a.246.246 0 0 0 .057.084c.023.023.053.041.086.052a.337.337 0 0 0 .169.014.247.247 0 0 0 .136-.058l-.001.001a.032.032 0 0 1 .02-.007zm1.188-.198v.004a.33.33 0 0 1-.029.137l.001-.002a.28.28 0 0 1-.077.107h-.001a.374.374 0 0 1-.119.07l-.003.001a.486.486 0 0 1-.316-.001l.003.001a.355.355 0 0 1-.121-.071l.001.001a.318.318 0 0 1-.078-.107l-.001-.002a.367.367 0 0 1 .001-.281l-.001.002a.321.321 0 0 1 .078-.11.342.342 0 0 1 .121-.068.486.486 0 0 1 .316.001l-.003-.001a.328.328 0 0 1 .227.319zm-.108 0V19.4a.28.28 0 0 0-.021-.108l.001.002a.23.23 0 0 0-.14-.136l-.002-.001a.373.373 0 0 0-.23.001l.003-.001a.24.24 0 0 0-.087.053.22.22 0 0 0-.055.082l-.001.002a.333.333 0 0 0 .001.226l-.001-.002a.229.229 0 0 0 .141.136l.002.001a.367.367 0 0 0 .227 0 .24.24 0 0 0 .087-.052.231.231 0 0 0 .055-.084.288.288 0 0 0 .02-.112zm.919.117.011.025a.592.592 0 0 1 .012-.025c.004-.01.009-.018.014-.026l-.001.001.263-.415c.005-.007.01-.012.015-.013l.018-.002h.082v.675h-.092v-.517l-.001-.012.001-.012v.001l-.265.421a.043.043 0 0 1-.015.015.042.042 0 0 1-.022.005h-.017a.04.04 0 0 1-.022-.006.036.036 0 0 1-.015-.015l-.272-.424v.542h-.089v-.674h.082c.007 0 .012.001.018.003h-.001a.03.03 0 0 1 .014.013l.268.415a.171.171 0 0 1 .013.023l.001.001zm.989-.033v.253h-.102v-.674h.229a.462.462 0 0 1 .128.015.27.27 0 0 1 .091.042.17.17 0 0 1 .051.065l.001.001a.2.2 0 0 1 .017.086v.004a.186.186 0 0 1-.074.149l-.001.001a.274.274 0 0 1-.091.044.422.422 0 0 1-.116.016h-.009l-.124-.002zm0-.073h.125a.27.27 0 0 0 .08-.01.167.167 0 0 0 .058-.029l-.001.001a.13.13 0 0 0 .047-.1V19.27a.11.11 0 0 0-.011-.048l.001.001a.137.137 0 0 0-.036-.046.217.217 0 0 0-.122-.037l-.017.001h-.124v.278zm1.382.326h-.083a.037.037 0 0 1-.021-.006.05.05 0 0 1-.014-.015l-.07-.163h-.351l-.073.163a.039.039 0 0 1-.035.022h-.082l.309-.675h.107l.313.675zm-.509-.251h.29l-.122-.275a.533.533 0 0 1-.023-.063l-.012.035-.011.029-.122.274zm.954-.421a.044.044 0 0 1 .015.012l.45.509v-.524h.092v.675h-.053a.065.065 0 0 1-.02-.004h.001c-.006-.003-.012-.008-.017-.012l-.45-.509.001.011-.001.012v-.001.502h-.092v-.675h.055l.018.003zm1.316.404v.268h-.103v-.268l-.285-.407h.094c.008 0 .014.002.02.006a.1.1 0 0 1 .014.015l.178.262c.007.011.014.022.018.031l.013.029.013-.029a.475.475 0 0 1 .017-.031l.175-.264a.086.086 0 0 1 .013-.014.032.032 0 0 1 .02-.006h.095l-.285.408zm-4.183-1.54c.045.005.09.009.136.012.694-.27 1.281-.711 1.688-1.269s.615-1.208.599-1.868l-.765-.664c.156.703.082 1.43-.21 2.1s-.794 1.255-1.448 1.691z"/>
      <path d="m14.58 17.904.021.004c.699-.434 1.232-1.041 1.529-1.741s.347-1.462.142-2.186l-1.09-.946c.44.778.618 1.649.511 2.511s-.492 1.68-1.113 2.359zm3.694-2.314c-.185.726-.635 1.38-1.282 1.866a4.045 4.045 0 0 1-.586.369l-.023.011c.527-.134 1.012-.373 1.416-.695s.718-.722.917-1.167l-.442-.383z"/>
      <path d="m18.101 15.483-.629-.547c-.012.623-.216 1.232-.591 1.763s-.906.966-1.539 1.259h.003c.141 0 .282-.008.422-.022.592-.21 1.115-.544 1.522-.972s.686-.937.812-1.482zm-3.43-2.848-.751-.652c-.671.225-1.248.621-1.655 1.136s-.626 1.125-.629 1.75c.003.69.27 1.361.76 1.904s1.175.93 1.945 1.097c.688-.728 1.091-1.629 1.15-2.57s-.229-1.874-.822-2.664zm5.164 2.748c-.003-.819-.379-1.604-1.045-2.184s-1.57-.906-2.513-.908h-.008c-.453 0-.888.075-1.294.214l.028-.008 4.594 3.992a2.67 2.67 0 0 0 .238-1.106z"/>
    </symbol>
    <symbol id="icon-client-4" viewBox="0 0 32 32">
      <path d="M10.592 14.321h-.001c-.452 0-.819.326-.819.728v.001c0 .402.367.728.819.728h.001c.452 0 .819-.326.819-.728v-.001c0-.402-.367-.728-.819-.728zm6.046-.232c-.001-.559-.252-1.094-.696-1.489s-1.046-.617-1.675-.619c-.629.001-1.231.223-1.675.618s-.695.93-.696 1.489v3.08s4.741-.469 4.742-3.079v-.001zm-8.526 4.09c.001.389.175.761.484 1.036s.728.43 1.165.431c.437-.001.856-.156 1.165-.431s.483-.647.484-1.035v-2.143s-3.299.327-3.299 2.142zm1.65.384a.462.462 0 0 1-.24-.065.398.398 0 0 1-.158-.17l-.001-.002a.333.333 0 0 1-.024-.224l-.001.002c.017-.074.057-.143.118-.196a.45.45 0 0 1 .306-.113.5.5 0 0 1 .169.03l-.003-.001c.079.029.146.078.194.142a.352.352 0 0 1-.053.486l-.001.001a.45.45 0 0 1-.305.113h-.001v-.002zm3.334-.212h-.318v.329h-.166v-.805h.524v.134h-.358v.208h.318v.134zm.797-.055c0 .079-.014.149-.042.208s-.068.106-.121.138a.333.333 0 0 1-.173.049h-.007.001a.319.319 0 0 1-.298-.183l-.001-.002a.456.456 0 0 1-.043-.198V18.3v.001-.04c0-.079.014-.149.042-.209a.317.317 0 0 1 .3-.188.324.324 0 0 1 .299.188c.028.061.043.13.043.208v.036zm-.168-.036a.344.344 0 0 0-.045-.193.148.148 0 0 0-.123-.066h-.007.001-.007a.148.148 0 0 0-.122.065l-.001.001a.33.33 0 0 0-.046.19v.039c0 .082.015.146.045.191s.074.068.131.068h.007c.05 0 .095-.026.121-.065l.001-.001a.337.337 0 0 0 .045-.191v-.039zm.705.209v-.005a.084.084 0 0 0-.033-.067.412.412 0 0 0-.119-.053.755.755 0 0 1-.141-.058l.005.002c-.092-.049-.137-.116-.137-.2 0-.043.012-.082.036-.116.025-.034.06-.061.106-.08a.404.404 0 0 1 .308.002.238.238 0 0 1 .142.217h-.166c0-.037-.011-.066-.035-.086s-.056-.031-.098-.031a.15.15 0 0 0-.094.026.08.08 0 0 0-.034.066v.002c0 .026.013.048.039.066s.066.034.117.049c.094.028.163.063.206.106s.065.094.065.157c0 .069-.027.125-.079.164s-.123.059-.213.059a.405.405 0 0 1-.169-.034.271.271 0 0 1-.116-.092l-.001-.001a.236.236 0 0 1-.04-.132v-.005h.166c0 .088.053.133.159.133.04 0 .07-.008.092-.024a.08.08 0 0 0 .033-.064v-.003zm.886-.46h-.246v.67h-.166v-.67h-.243v-.134h.655v.134zm.578.322h-.318v.216h.374v.133h-.539v-.805h.539v.134h-.373v.192h.318v.13zm.451.054h-.132v.294h-.166v-.805h.299c.095 0 .169.021.22.063s.078.102.078.18a.249.249 0 0 1-.036.138.25.25 0 0 1-.106.087l-.002.001.174.329v.008h-.178l-.151-.294zm-.132-.134h.134c.042 0 .074-.01.097-.031a.116.116 0 0 0 .034-.082v-.006.001c0-.038-.011-.068-.033-.09s-.054-.033-.099-.033h-.133v.241zm1.005.146v.284h-.166v-.805h.314c.06 0 .113.011.159.033a.25.25 0 0 1 .143.233c0 .079-.027.141-.081.187s-.129.068-.224.068h-.145zm0-.135h.148c.044 0 .078-.01.1-.031a.113.113 0 0 0 .035-.088v-.006a.131.131 0 0 0-.035-.09.127.127 0 0 0-.096-.037h-.152v.253zm1.049.069h-.318v.216h.374v.133h-.539v-.805h.539v.134h-.373v.192h.318v.13zm.769-.322h-.247v.67h-.166v-.67h-.243v-.134h.656v.134zm.579.322h-.318v.216h.374v.133h-.539v-.805h.538v.134h-.373v.192h.318v.13zm.451.054h-.132v.294h-.166v-.805h.299c.095 0 .168.021.22.063s.078.102.078.18a.249.249 0 0 1-.036.138.25.25 0 0 1-.106.087l-.002.001.174.329v.008h-.178l-.151-.294zm-.132-.134h.134c.042 0 .074-.01.097-.031s.034-.051.034-.088c0-.038-.011-.068-.033-.09s-.054-.033-.099-.033h-.133v.241zm.974.218v-.005a.084.084 0 0 0-.033-.067.412.412 0 0 0-.119-.053.755.755 0 0 1-.141-.058l.005.002c-.092-.049-.137-.116-.137-.2 0-.043.012-.082.036-.116s.06-.061.106-.08a.404.404 0 0 1 .309.002.232.232 0 0 1 .142.217h-.166c0-.037-.012-.066-.035-.086s-.056-.031-.098-.031a.15.15 0 0 0-.094.026.079.079 0 0 0-.034.065v.002c0 .026.013.048.039.066s.066.034.117.049c.094.028.163.063.206.106s.065.094.065.157c0 .069-.027.125-.079.164s-.124.059-.213.059a.405.405 0 0 1-.169-.034.279.279 0 0 1-.116-.092l-.001-.001a.236.236 0 0 1-.04-.132v-.005h.166c0 .088.053.133.159.133.04 0 .07-.008.092-.024a.08.08 0 0 0 .033-.065v-.003z"/>
    </symbol>
    <symbol id="icon-client-5" viewBox="0 0 32 32">
      <path d="M11.084 18.78a.27.27 0 0 1 .069.184l.001.014c0 .041-.009.08-.026.115l.001-.002a.305.305 0 0 1-.082.105l-.001.001a.49.49 0 0 1-.279.086l-.034-.001h-.546v-1.168h.536l.031-.001a.48.48 0 0 1 .267.08l-.002-.001c.035.027.062.06.08.098s.026.079.024.121a.257.257 0 0 1-.062.178.29.29 0 0 1-.163.091.319.319 0 0 1 .185.1zm-.642-.177h.229a.234.234 0 0 0 .146-.039.14.14 0 0 0 .039-.051l.001-.001a.123.123 0 0 0 .011-.051l-.001-.011v.001l.001-.01a.132.132 0 0 0-.011-.053l.001.001a.143.143 0 0 0-.038-.052.234.234 0 0 0-.132-.04l-.019.001h-.225v.306zm.398.448a.146.146 0 0 0 .042-.053l.001-.001a.128.128 0 0 0 .012-.056l-.001-.01v.001-.009a.145.145 0 0 0-.013-.059l.001.001a.143.143 0 0 0-.043-.054h-.001a.25.25 0 0 0-.14-.043l-.016.001h-.24v.321h.244a.252.252 0 0 0 .154-.041zm1.341.231-.298-.457h-.112v.457h-.257v-1.168H12l.035-.001c.114 0 .22.038.305.101l-.001-.001a.36.36 0 0 1 .116.235l.001.024c0 .085-.03.163-.081.224l.001-.001a.4.4 0 0 1-.229.118h-.002l.318.467h-.279zm-.41-.616h.21c.146 0 .219-.059.219-.177v-.009a.16.16 0 0 0-.012-.062l.001.001a.163.163 0 0 0-.042-.06.24.24 0 0 0-.145-.048l-.021.001h-.212l.003.355zm1.814.381h-.511l-.091.235h-.269l.47-1.155h.291l.468 1.155h-.269l-.088-.235zm-.069-.177-.187-.493-.187.493h.374zm1.826.412h-.255l-.572-.794v.794h-.254v-1.168h.254l.572.799v-.799h.255v1.168zm1.454-.279a.535.535 0 0 1-.23.206.79.79 0 0 1-.338.074l-.022-.001h-.452v-1.168H16.229a.83.83 0 0 1 .342.074l-.005-.002a.52.52 0 0 1 .23.204.627.627 0 0 1 0 .612zm-.292-.029a.409.409 0 0 0 .113-.279.408.408 0 0 0-.113-.279.47.47 0 0 0-.29-.1l-.03.001h-.175v.756h.177a.469.469 0 0 0 .32-.1l-.001.001zm-2.76-7.357s3.29 1.137 3.22 2.783v2.783s-3.287-1.137-3.219-2.783l-.001-2.783zm6.151 4.915a4.764 4.764 0 0 1 2.09-.705v-.872a4.225 4.225 0 0 0-2.09 1.577z"/>
      <path d="M19.522 16.794c.508-.938 1.39-1.661 2.463-2.022v-2.511s-4.685 1.62-4.586 3.963v3.963s.209-.073.538-.208c0-.126 0-.254.015-.383.097-1.088.662-2.096 1.57-2.803z"/>
      <path d="M19.076 18.266c.024-.275.079-.547.164-.811a3.67 3.67 0 0 0-.98 2.166 2.851 2.851 0 0 0-.012.228c.391-.171.687-.316.977-.472l-.075.037a3.787 3.787 0 0 1-.073-1.148zm.186.015a3.688 3.688 0 0 0 .062 1.062l-.004-.023c1.28-.701 2.718-1.785 2.663-3.094v-.114a4.38 4.38 0 0 0-2.435 1.042c-.146.33-.248.712-.284 1.113l-.001.014z"/>
    </symbol>
    <symbol id="icon-client-6" viewBox="0 0 32 32">
      <path d="M16.116 15.511a.553.553 0 0 1-.116-.339l.001-.038v.002-.544c0-.166.038-.293.113-.38s.206-.13.389-.13c.173 0 .296.037.369.111a.45.45 0 0 1 .109.325v.128h-.309v-.13a.679.679 0 0 0-.009-.127.12.12 0 0 0-.044-.075.175.175 0 0 0-.099-.03l-.014.001h.001l-.013-.001a.189.189 0 0 0-.105.032l.001-.001a.143.143 0 0 0-.051.082v.001a.6.6 0 0 0-.012.124v.011-.001.66a.336.336 0 0 0 .04.185c.016.02.037.035.061.044l.001.001c.018.008.04.011.062.011l.019-.001h-.001a.163.163 0 0 0 .11-.03l-.001.001a.131.131 0 0 0 .046-.079v-.001a.734.734 0 0 0 .01-.132v-.134h.31v.122l.001.033a.496.496 0 0 1-.109.311l.001-.001c-.071.081-.193.121-.37.121s-.313-.043-.389-.133zm1.288.006c-.078-.085-.117-.208-.117-.372v-.572c0-.162.039-.284.117-.367s.209-.124.392-.124c.182 0 .312.042.39.124s.118.205.118.367v.572c0 .162-.04.286-.119.371s-.209.127-.389.127-.314-.043-.392-.127zm.537-.137a.315.315 0 0 0 .037-.169v-.701l.001-.019a.311.311 0 0 0-.038-.149l.001.002a.146.146 0 0 0-.062-.045l-.001-.001a.17.17 0 0 0-.083-.009h.001l-.021-.001a.18.18 0 0 0-.062.011l.001-.001a.146.146 0 0 0-.063.045v.001a.304.304 0 0 0-.037.166v.704a.313.313 0 0 0 .037.169.204.204 0 0 0 .145.057.199.199 0 0 0 .081-.016l-.002.001a.192.192 0 0 0 .065-.042v-.003zm.736-1.281h.333l.251 1.055.257-1.055h.324l.033 1.524h-.24l-.026-1.059-.247 1.059h-.192l-.257-1.063-.024 1.063h-.242l.03-1.524zm1.571 0h.519c.299 0 .449.144.449.433 0 .276-.157.414-.472.414h-.177v.677h-.321l.002-1.524zm.444.651a.243.243 0 0 0 .176-.049.245.245 0 0 0 .046-.172l.001-.017a.516.516 0 0 0-.016-.125l.001.003a.12.12 0 0 0-.064-.072l-.001-.001a.322.322 0 0 0-.143-.024h-.123v.456h.124zm.986-.651h.344l.353 1.524h-.299l-.07-.351h-.307l-.072.351h-.303l.353-1.524zm.294.996-.12-.639-.12.639h.24zm.688-.996h.225l.43.869v-.869h.266v1.524h-.213l-.432-.907v.907h-.275l.001-1.524zm1.543.943-.357-.94h.3l.218.604.204-.604h.294l-.353.94v.581h-.308v-.581zm-7.593 1.247v.08h-.261v.619h-.11v-.619h-.263v-.08h.634zm.82.699H17.343c-.008 0-.015-.003-.022-.006a.036.036 0 0 1-.014-.016l-.075-.166h-.363l-.075.166a.035.035 0 0 1-.012.019.04.04 0 0 1-.022.006H16.673l.321-.699h.112l.324.696zm-.531-.26h.303l-.129-.285a.625.625 0 0 1-.023-.062l-.001-.004a.816.816 0 0 1-.012.037l-.012.029-.127.284zm1.083.191a.6.6 0 0 0 .06 0c.017-.002.034-.004.051-.008.016-.003.031-.008.046-.012l.043-.017v-.157h-.129a.023.023 0 0 1-.016-.006l-.005-.005a.014.014 0 0 1-.002-.006v-.055h.248v.268a.473.473 0 0 1-.132.056l-.003.001a.75.75 0 0 1-.174.019h-.004a.503.503 0 0 1-.161-.027l.003.001a.408.408 0 0 1-.129-.073l.001.001a.348.348 0 0 1-.082-.108l-.001-.002a.354.354 0 0 1-.029-.14V16.64c0-.051.011-.1.03-.144l-.001.002c.018-.042.047-.079.082-.111s.08-.056.129-.073a.524.524 0 0 1 .172-.026.468.468 0 0 1 .229.052c.02.011.038.023.056.036l-.031.043a.028.028 0 0 1-.01.009.033.033 0 0 1-.015.004.046.046 0 0 1-.02-.005.334.334 0 0 1-.033-.017l.002.001c-.012-.006-.026-.013-.041-.018l-.002-.001a.377.377 0 0 0-.056-.015l-.003-.001a.463.463 0 0 0-.077-.006h-.008a.387.387 0 0 0-.123.02l.003-.001a.26.26 0 0 0-.094.055.237.237 0 0 0-.059.085l-.001.002a.316.316 0 0 0 0 .236l-.001-.002a.264.264 0 0 0 .157.143.363.363 0 0 0 .127.014zm1.022-.011h.35v.08h-.457v-.699h.11l-.003.619zm.714.08h-.11v-.699h.11v.699zm.407-.696c.006.003.012.008.017.012l.469.527-.001-.012.001-.013v.001-.521h.095v.702h-.059c-.007 0-.014-.002-.021-.004h.001a.07.07 0 0 1-.017-.013l-.468-.526v.543h-.092v-.699h.057l.018.003zm1.388-.003v.077h-.388v.23h.315v.074h-.315v.239h.388v.077h-.501v-.697h.501zm-11.484-4.316 4.866 1.193v4.18l-4.866-1.192v-4.181zm-.312-.356v4.74l5.49 1.346v-4.74l-5.49-1.347z"/>
      <path d="m12.66 19.903-5.49-1.347v-4.74l5.49 1.347v4.74z"/>
      <path d="m9.808 11.92 4.803 1.178-2.043 1.764-4.804-1.179 2.043-1.763zm-.091-.303-2.548 2.2 5.49 1.347 2.548-2.2-5.49-1.347zm3.251 8.02 2.239-1.933-2.239-.549v2.482z"/>
    </symbol>
    <symbol id="icon-clock" viewBox="0 0 32 32">
      <path fill="#212121" style="fill:var(--color1, #212121)" d="M31.296 15.301C31.295 6.849 24.441-.002 15.988 0S.685 6.855.687 15.308c.002 6.788 4.422 12.543 10.541 14.545l.108.031a.667.667 0 0 0 .529-.065.636.636 0 0 0 .283-.357l3.865-12.25a1.913 1.913 0 1 0-.852-3.63l.011-.005-5.106-5.107a.638.638 0 0 0-.902.902l5.103 5.109a1.847 1.847 0 0 0-.191.826c0 .602.283 1.137.723 1.48l.004.003-3.682 11.673C3.843 25.782.117 17.709 2.797 10.431S13.551-.573 20.829 2.108c7.278 2.681 11.004 10.754 8.323 18.032-1.345 3.581-4.003 6.406-7.374 7.938l-.088.036-.398-1.874a.639.639 0 0 0-1.05-.343l.001-.001-3.837 3.426a.637.637 0 0 0 .227 1.083l.005.001 4.899 1.563a.637.637 0 0 0 .818-.744l.001.004-.391-1.839c5.528-2.374 9.329-7.772 9.329-14.057v-.034.002zm-15.304-.637a.638.638 0 0 1 0 1.276.638.638 0 0 1 0-1.276zm2.1 14.864 2.184-1.948.603 2.84-2.787-.892z"/>
      <path fill="#2196f3" style="fill:var(--color2, #2196f3)" d="M15.354 3.185V4.46a.638.638 0 0 0 1.276 0V3.185a.638.638 0 1 0-1.276 0zM3.876 14.664a.638.638 0 0 0 0 1.276h1.275a.638.638 0 0 0 0-1.276H3.876zm24.232 1.275a.638.638 0 0 0 0-1.276h-1.275a.638.638 0 0 0 0 1.276h1.275z"/>
    </symbol>
    <symbol id="icon-diagram" viewBox="0 0 32 32">
      <path fill="#2196f3" style="fill:var(--color2, #2196f3)" d="M14.926 14.965h1.066v4.798h-1.066v-4.798zm4.264 2.132h1.066v2.665H19.19v-2.665zm-8.529 1.599h1.066v1.066h-1.066v-1.066zm-3.198-.533h1.066v1.599H7.463v-1.599z"/>
      <path fill="#212121" style="fill:var(--color1, #212121)" d="M1.599 28.291h25.586a1.6 1.6 0 0 0 1.599-1.599V24.56a1.6 1.6 0 0 0-1.599-1.599h-.533V9.667l3.028-2.868a1.608 1.608 0 1 0-.742-.752l-.004-.01-2.281 2.162v-1.23a1.6 1.6 0 0 0-1.599-1.599H3.731a1.6 1.6 0 0 0-1.599 1.599v15.992h-.533A1.6 1.6 0 0 0 0 24.56v2.132a1.6 1.6 0 0 0 1.599 1.599zM30.384 4.837a.533.533 0 0 1 0 1.066.533.533 0 0 1 0-1.066zM3.198 6.969c0-.294.239-.533.533-.533h21.323c.294 0 .533.239.533.533v2.239l-1.066 1.013V8.036a.534.534 0 0 0-.534-.534H4.798a.534.534 0 0 0-.534.533v13.327c0 .294.239.533.534.533h19.189a.534.534 0 0 0 .534-.533v-9.675l1.066-1.01V22.96H3.198V6.969zm4.798 6.93h-.005a1.6 1.6 0 1 0 1.112 2.748l1.853.93a.535.535 0 0 0 .636-.122l3.939-4.432 3.872 2.902a.534.534 0 0 0 .686-.039l3.365-3.188v8.131H5.331V8.568h18.123v2.661l-3.771 3.572-3.904-2.927a.534.534 0 0 0-.718.071v.001l-3.993 4.493-1.493-.746c.011-.064.017-.128.02-.193a1.6 1.6 0 0 0-1.599-1.599zm.533 1.599a.533.533 0 0 1-1.066 0 .533.533 0 0 1 1.066 0zm3.198 8.528h5.33v.533a.533.533 0 0 1-.533.533h-4.265a.533.533 0 0 1-.533-.533v-.533zm-10.66.534c0-.294.238-.533.533-.533h9.062v.533a1.6 1.6 0 0 0 1.599 1.599h4.265a1.6 1.6 0 0 0 1.599-1.599v-.533h9.062c.294 0 .533.239.533.533v2.132a.533.533 0 0 1-.533.533H1.601a.533.533 0 0 1-.533-.533V24.56z"/>
    </symbol>
    <symbol id="icon-email" viewBox="0 0 32 32">
      <path d="M28.775 4.093H2.976A2.981 2.981 0 0 0-.001 7.07v17.86a2.981 2.981 0 0 0 2.977 2.977h25.799a2.981 2.981 0 0 0 2.977-2.977V7.07a2.981 2.981 0 0 0-2.977-2.977zm0 1.985c.135 0 .264.028.381.077l-13.28 11.51-13.28-11.51a.974.974 0 0 1 .381-.077h25.799zm0 19.844H2.976a.992.992 0 0 1-.992-.992V8.251l13.241 11.476c.173.151.401.243.651.243s.478-.092.652-.244l-.002.001L29.767 8.251V24.93a.992.992 0 0 1-.992.992z"/>
    </symbol>
    <symbol id="icon-facebook" viewBox="0 0 32 32">
      <path d="M21.328 5.312h2.923V.224A36.483 36.483 0 0 0 20.143 0h-.156.008c-4.213 0-7.099 2.65-7.099 7.52V12H8.25v5.688h4.646V32h5.699V17.69h4.459l.707-5.688h-5.168V8.08c0-1.643.443-2.768 2.734-2.768z"/>
    </symbol>
    <symbol id="icon-instagram" viewBox="0 0 32 32">
      <path d="M31.968 9.408c-.074-1.701-.349-2.869-.742-3.882a7.839 7.839 0 0 0-1.85-2.837l-.001-.001A7.906 7.906 0 0 0 26.597.861l-.054-.018C25.524.449 24.362.176 22.661.101 20.949.019 20.405 0 16.059 0c-4.344 0-4.888.019-6.595.094-1.699.074-2.869.349-3.88.742a7.847 7.847 0 0 0-2.839 1.85l-.001.001A7.9 7.9 0 0 0 .919 5.465l-.018.054C.506 6.538.232 7.7.157 9.401c-.082 1.712-.101 2.256-.101 6.602 0 4.344.019 4.888.094 6.595.075 1.701.35 2.869.744 3.882a7.915 7.915 0 0 0 1.849 2.837l.001.001c.8.813 1.77 1.443 2.832 1.843 1.019.395 2.182.67 3.882.744 1.707.075 2.251.094 6.595.094 4.346 0 4.89-.019 6.595-.094 1.701-.074 2.869-.349 3.882-.742a8.237 8.237 0 0 0 4.664-4.628l.019-.055c.394-1.019.669-2.182.744-3.882.075-1.707.093-2.251.093-6.595s-.006-4.888-.08-6.595zm-2.88 13.066c-.07 1.563-.333 2.406-.55 2.97a5.341 5.341 0 0 1-3.004 3.024l-.036.012c-.56.219-1.411.482-2.968.55-1.688.075-2.194.094-6.464.094-4.269 0-4.782-.019-6.464-.094-1.563-.069-2.406-.331-2.97-.55a4.953 4.953 0 0 1-1.836-1.192l-.001-.001a4.978 4.978 0 0 1-1.184-1.803L3.6 25.45c-.218-.563-.48-1.413-.549-2.97-.075-1.688-.094-2.195-.094-6.464s.019-4.784.094-6.464c.069-1.563.331-2.406.549-2.97a4.897 4.897 0 0 1 1.198-1.837l.002-.002a4.972 4.972 0 0 1 1.806-1.182l.034-.011c.56-.219 1.411-.48 2.968-.55 1.688-.074 2.195-.093 6.464-.093 4.275 0 4.782.019 6.464.093 1.563.069 2.406.331 2.97.55a4.91 4.91 0 0 1 1.837 1.194c.531.52.938 1.144 1.195 1.84.218.56.48 1.411.549 2.968.075 1.688.094 2.194.094 6.464 0 4.269-.019 4.768-.094 6.458z"/>
      <path d="M16.059 7.782a8.223 8.223 0 0 0-8.219 8.221 8.223 8.223 0 0 0 16.442.008v-.009a8.223 8.223 0 0 0-8.221-8.221zm0 13.552a5.333 5.333 0 0 1 .001-10.666h.001a5.334 5.334 0 1 1 0 10.668zM26.525 7.458a1.92 1.92 0 0 1-3.84 0 1.92 1.92 0 0 1 3.84 0z"/>
    </symbol>
    <symbol id="icon-linkedin" viewBox="0 0 32 32">
      <path d="M31.992 32H32V20.262c0-5.741-1.237-10.163-7.947-10.163-3.227 0-5.392 1.77-6.277 3.45h-.093v-2.914h-6.365v21.363h6.627V21.42c0-2.786.528-5.48 3.978-5.48 3.398 0 3.448 3.179 3.448 5.658V32h6.621zM.528 10.635h6.635V32H.528V10.635zM3.843 0A3.843 3.843 0 0 0 0 3.843c0 2.12 1.722 3.878 3.843 3.878 2.12 0 3.842-1.757 3.842-3.878S5.965.002 3.844 0z"/>
    </symbol>
    <symbol id="icon-phone" viewBox="0 0 32 32">
      <path d="M23 0H9C7.346 0 6 1.346 6 3v26c0 1.654 1.346 3 3 3h14c1.654 0 3-1.346 3-3V3c0-1.654-1.346-3-3-3zM9 2h14a1 1 0 0 1 1 1v21H8V3a1 1 0 0 1 1-1zm14 28H9a1 1 0 0 1-1-1v-3h16v3a1 1 0 0 1-1 1z"/>
      <path d="M10.708 27.478a.889.889 0 0 1 .001 1.319l-.001.001a1.048 1.048 0 0 1-1.417 0l.001.001a.889.889 0 0 1-.001-1.319l.001-.001a1.048 1.048 0 0 1 1.417 0l-.001-.001z"/>
    </symbol>
    <symbol id="icon-twitter" viewBox="0 0 32 32">
      <path d="M32 6.078c-1.1.493-2.376.857-3.713 1.028l-.068.007a6.556 6.556 0 0 0 2.873-3.579l.013-.046a12.88 12.88 0 0 1-4.076 1.573l-.084.014A6.558 6.558 0 0 0 15.6 9.557v.004c0 .52.043 1.021.152 1.496-5.454-.266-10.28-2.88-13.522-6.861a6.524 6.524 0 0 0-.902 3.313v.001a6.57 6.57 0 0 0 2.914 5.451 6.453 6.453 0 0 1-2.994-.823l.033.017v.072a6.592 6.592 0 0 0 5.213 6.44l.043.008a6.403 6.403 0 0 1-1.662.215h-.061.003c-.419 0-.843-.024-1.242-.112.85 2.598 3.261 4.509 6.13 4.57a13.093 13.093 0 0 1-8.122 2.8H1.57h.001-.062c-.531 0-1.055-.034-1.569-.099l.061.006c2.826 1.846 6.287 2.944 10.004 2.944h.063-.003c12.072 0 18.672-10 18.672-18.669 0-.288-.01-.57-.024-.848a13.203 13.203 0 0 0 3.258-3.355l.03-.047z"/>
    </symbol>
  </defs>
</svg>
